<?xml version="1.0" standalone="no"?>
<!DOCTYPE svg PUBLIC "-//W3C//DTD SVG 20010904//EN"
 "http://www.w3.org/TR/2001/REC-SVG-20010904/DTD/svg10.dtd">
<svg version="1.0" xmlns="http://www.w3.org/2000/svg"
 width="188.000000pt" height="177.000000pt" viewBox="0 0 188.000000 177.000000"
 preserveAspectRatio="xMidYMid meet">
<metadata>
Created by potrace 1.10, written by Peter Selinger 2001-2011
</metadata>
<g transform="translate(0.000000,177.000000) scale(0.100000,-0.100000)"
fill="#000000" stroke="none">
<path d="M533 1364 c-116 -58 -74 -234 57 -234 30 0 43 -10 102 -72 38 -40 71
-83 74 -95 3 -12 -2 -43 -11 -67 -20 -51 -18 -50 -155 -61 -65 -5 -78 -4 -96
13 -50 47 -108 55 -162 22 -118 -72 -40 -259 93 -226 14 4 43 22 63 41 37 33
42 34 145 41 99 6 107 6 113 -12 4 -10 23 -41 42 -67 29 -41 34 -53 26 -74 -5
-14 -16 -29 -24 -34 -8 -4 -33 -16 -54 -26 -52 -25 -77 -60 -83 -114 -8 -81
55 -152 136 -152 106 0 172 108 125 206 -15 31 -15 36 0 65 15 29 21 32 64 33
26 0 74 10 107 23 l60 23 47 -40 c40 -33 48 -46 48 -74 0 -81 53 -143 128
-151 60 -5 102 14 131 61 41 67 18 154 -51 198 -27 16 -43 19 -85 15 -46 -5
-55 -3 -85 21 -64 54 -62 49 -48 108 12 50 10 118 -5 157 -4 10 4 23 25 38 30
21 35 22 86 10 47 -11 59 -11 99 4 67 26 100 74 100 146 0 47 -5 63 -29 94
-93 122 -264 66 -283 -93 -5 -45 -11 -56 -37 -72 -29 -17 -32 -18 -60 -1 -40
23 -41 31 -6 72 38 45 46 80 26 122 -33 70 -116 89 -166 39 -37 -36 -47 -75
-30 -115 24 -59 20 -66 -43 -86 l-57 -18 -75 82 c-70 75 -75 84 -75 126 0 54
-27 103 -69 125 -38 19 -67 19 -108 -1z m119 -44 c28 -28 30 -35 25 -78 -6
-52 -16 -37 135 -199 l48 -51 39 19 c22 10 56 19 74 19 32 0 35 3 41 35 5 27
2 39 -14 55 -12 12 -20 33 -20 52 0 75 97 109 139 49 12 -16 21 -40 21 -53 0
-29 -26 -68 -46 -68 -14 0 -34 -38 -34 -66 0 -8 12 -19 28 -25 15 -6 37 -20
49 -31 l22 -21 56 38 c53 37 55 39 49 75 -18 109 106 188 197 127 61 -41 77
-113 39 -175 -36 -58 -137 -80 -179 -38 -13 13 -20 11 -65 -21 -28 -20 -55
-40 -59 -44 -5 -4 -2 -20 7 -37 22 -43 20 -119 -4 -166 l-19 -39 27 -21 c15
-11 46 -39 70 -60 38 -34 46 -38 63 -28 44 28 124 4 150 -45 32 -59 -3 -144
-65 -161 -49 -14 -82 -4 -117 36 -28 31 -31 41 -27 81 l5 46 -68 58 -69 58
-25 -19 c-34 -27 -107 -45 -159 -40 l-43 5 -27 -54 -26 -54 21 -28 c45 -61 14
-150 -60 -172 -72 -21 -141 34 -141 113 0 56 54 108 113 108 19 0 29 11 50 57
20 42 24 59 15 62 -25 8 -67 62 -84 107 -14 37 -21 44 -38 40 -12 -2 -72 -8
-133 -12 -97 -6 -113 -9 -118 -25 -10 -29 -55 -59 -90 -59 -48 0 -95 47 -95
95 0 86 110 129 169 65 l27 -30 132 6 132 7 0 27 c0 15 11 48 25 74 l25 47
-94 103 c-76 83 -97 101 -113 95 -32 -12 -72 2 -99 34 -22 26 -25 38 -21 71
11 83 101 114 159 56z"/>
<path d="M975 941 c4 -14 -1 -23 -21 -33 -59 -29 -49 -86 20 -117 25 -11 46
-26 46 -34 0 -20 -36 -28 -67 -16 -29 11 -28 11 -37 -18 -7 -21 -4 -23 27 -23
30 0 34 -3 30 -20 -4 -15 0 -20 16 -20 14 0 21 6 21 20 0 11 6 20 13 20 34 0
60 65 39 96 -4 6 -26 21 -49 33 -24 12 -43 29 -43 38 0 13 8 15 46 10 42 -4
45 -3 42 17 -2 13 -11 22 -25 24 -15 2 -23 10 -23 23 0 13 -7 19 -21 19 -16 0
-19 -4 -14 -19z"/>
</g>
</svg>
