<?xml version="1.0" standalone="no"?>
<!DOCTYPE svg PUBLIC "-//W3C//DTD SVG 20010904//EN"
 "http://www.w3.org/TR/2001/REC-SVG-20010904/DTD/svg10.dtd">
<svg version="1.0" xmlns="http://www.w3.org/2000/svg"
 width="759.000000pt" height="488.000000pt" viewBox="0 0 759.000000 488.000000"
 preserveAspectRatio="xMidYMid meet">

<g transform="translate(0.000000,488.000000) scale(0.100000,-0.100000)"
fill="#000000" stroke="none">
<path d="M0 2440 l0 -2440 3795 0 3795 0 0 2440 0 2440 -3795 0 -3795 0 0
-2440z m1483 387 c13 -15 17 -31 14 -54 -5 -28 2 -41 70 -117 66 -76 77 -84
95 -75 11 6 39 16 62 23 33 9 42 17 44 37 2 14 -4 31 -12 39 -43 35 3 110 59
96 51 -13 58 -86 10 -108 -41 -19 -34 -59 17 -92 l42 -27 40 28 c32 22 41 36
42 59 1 57 4 65 30 89 20 19 38 25 70 25 37 0 47 -5 68 -33 15 -19 26 -44 26
-56 0 -30 -26 -78 -49 -91 -26 -14 -77 -13 -101 2 -16 11 -26 8 -62 -18 -24
-17 -41 -37 -39 -45 13 -47 12 -118 -2 -146 l-16 -30 58 -50 c42 -37 62 -49
72 -42 48 31 123 -14 123 -74 0 -77 -82 -114 -138 -62 -20 19 -26 33 -26 66 0
37 -5 47 -42 78 -61 53 -63 54 -107 31 -25 -12 -60 -20 -91 -20 -50 0 -51 -1
-72 -45 -20 -42 -21 -45 -5 -63 23 -25 21 -74 -4 -106 -16 -20 -29 -26 -60
-26 -103 0 -118 132 -19 161 33 10 44 20 59 53 l18 41 -39 44 c-21 24 -38 53
-38 64 0 19 -5 19 -107 12 -101 -7 -107 -9 -130 -36 -45 -53 -126 -27 -126 41
0 64 79 94 125 46 22 -23 27 -24 125 -19 l102 6 7 31 c3 17 15 43 25 58 l19
27 -77 83 c-68 73 -82 83 -108 80 -69 -7 -103 84 -48 128 32 25 69 20 96 -13z
m2635 -194 c-2 -14 -15 -19 -53 -21 -63 -4 -75 -15 -75 -68 l0 -43 48 -3 c34
-2 47 -7 47 -18 0 -11 -13 -16 -47 -18 l-48 -3 0 -115 c0 -107 -1 -114 -20
-114 -19 0 -20 7 -20 189 l0 190 26 20 c36 28 147 31 142 4z m-1370 -10 c-3
-15 -16 -19 -66 -21 l-62 -3 0 -184 0 -185 -25 0 -25 0 0 185 0 184 -62 3
c-50 2 -63 6 -66 21 -3 16 9 17 153 17 144 0 156 -1 153 -17z m2540 0 c-3 -15
-17 -18 -98 -21 -128 -3 -130 -5 -130 -162 0 -104 2 -120 21 -144 19 -25 25
-26 115 -26 87 0 94 -1 94 -20 0 -19 -7 -20 -95 -20 -102 0 -145 13 -165 49
-5 11 -10 83 -10 161 l0 142 29 29 c29 28 32 29 136 29 96 0 106 -2 103 -17z
m112 -38 l0 -55 84 0 c79 0 86 -2 105 -26 19 -24 21 -40 21 -150 0 -117 -1
-124 -20 -124 -19 0 -20 7 -20 113 0 148 -6 157 -101 157 l-69 0 0 -135 c0
-128 -1 -135 -20 -135 -19 0 -20 7 -20 205 0 198 1 205 20 205 18 0 20 -7 20
-55z m660 20 c0 -31 -3 -35 -25 -35 -22 0 -25 4 -25 35 0 31 3 35 25 35 22 0
25 -4 25 -35z m-3092 -87 c3 -15 -4 -18 -36 -18 -25 0 -49 -8 -66 -21 -25 -20
-26 -23 -26 -135 0 -107 -1 -114 -20 -114 -19 0 -20 7 -20 150 0 127 2 150 15
150 9 0 15 -9 15 -22 0 -19 2 -20 13 -6 32 40 118 51 125 16z m565 11 c38 -17
47 -50 47 -179 0 -113 -1 -120 -20 -120 -19 0 -20 7 -20 109 0 60 -4 121 -10
135 -8 23 -15 26 -62 26 -39 0 -57 -5 -75 -22 -21 -20 -23 -29 -23 -135 0
-106 -1 -113 -20 -113 -19 0 -20 7 -20 150 0 127 2 150 15 150 9 0 15 -9 15
-22 0 -19 2 -20 13 -6 29 37 109 50 160 27z m816 -4 c36 -18 41 -32 41 -106
l0 -59 -100 0 -100 0 0 -26 c0 -56 13 -64 105 -64 78 0 85 -2 85 -20 0 -18 -7
-20 -80 -20 -84 0 -132 15 -144 45 -10 28 -7 205 5 226 6 11 20 24 32 29 35
14 125 11 156 -5z m291 -5 c0 -16 -7 -20 -34 -20 -19 0 -45 -9 -60 -21 -25
-20 -26 -23 -26 -135 0 -107 -1 -114 -20 -114 -19 0 -20 7 -20 150 0 127 2
150 15 150 8 0 15 -7 15 -17 0 -14 2 -15 18 -1 23 20 40 26 80 27 26 1 32 -3
32 -19z m271 -9 c14 -17 19 -39 19 -87 l0 -64 -100 0 -100 0 0 -29 c0 -49 21
-61 111 -61 72 0 79 -2 79 -20 0 -18 -7 -20 -80 -20 -84 0 -132 15 -144 45
-10 28 -7 205 5 226 16 30 47 39 123 36 58 -2 71 -6 87 -26z m1448 14 c16 -8
31 -22 35 -30 3 -9 6 -73 6 -141 0 -117 -1 -124 -20 -124 -19 0 -20 7 -20 116
0 63 -5 124 -10 135 -9 15 -22 19 -65 19 -46 0 -56 -4 -74 -26 -18 -23 -21
-41 -21 -135 0 -102 -1 -109 -20 -109 -19 0 -20 7 -20 150 0 127 2 150 15 150
8 0 15 -7 15 -15 0 -12 6 -11 33 5 38 24 106 26 146 5z m-3159 -5 c29 -15 40
-65 40 -181 0 -87 -3 -109 -14 -109 -8 0 -17 7 -20 16 -5 14 -8 14 -28 0 -15
-10 -44 -16 -84 -16 -56 0 -65 3 -83 26 -36 46 -22 121 26 143 13 6 53 11 88
11 l65 0 0 35 c0 44 -20 55 -104 55 -52 0 -66 3 -66 15 0 12 16 15 81 15 44 0
89 -4 99 -10z m670 -5 c0 -12 -15 -15 -72 -15 -75 0 -108 -15 -108 -50 0 -26
18 -36 85 -51 99 -22 132 -77 81 -136 -23 -26 -30 -28 -115 -31 -87 -4 -91 -3
-91 17 0 20 5 21 79 21 59 0 84 4 95 16 19 18 19 20 6 44 -7 13 -30 23 -70 31
-78 15 -110 40 -110 83 0 19 9 45 21 60 19 25 25 26 110 26 72 0 89 -3 89 -15z
m2029 -11 c19 -24 21 -40 21 -150 0 -104 -2 -124 -15 -124 -9 0 -15 9 -15 22
l0 21 -23 -21 c-32 -31 -137 -32 -167 -2 -27 27 -27 99 -1 131 17 21 30 24
100 27 79 4 81 5 81 30 0 47 -25 62 -107 62 -58 0 -73 3 -73 15 0 12 17 15 89
15 85 0 91 -1 110 -26z m161 -125 c0 -150 0 -150 -22 -147 -23 3 -23 6 -26
151 l-3 147 26 0 25 0 0 -151z"/>
<path d="M1730 2535 c0 -8 -4 -15 -10 -15 -5 0 -17 -11 -25 -24 -21 -31 -8
-58 35 -76 43 -18 41 -44 -4 -37 -28 4 -35 2 -39 -14 -4 -14 1 -21 19 -25 13
-3 24 -12 24 -20 0 -8 7 -14 15 -14 8 0 15 6 15 14 0 7 11 21 25 30 17 11 25
26 25 46 0 24 -7 33 -40 50 -45 23 -44 45 0 36 20 -3 30 -1 34 10 9 23 8 24
-14 24 -11 0 -20 7 -20 15 0 8 -9 15 -20 15 -11 0 -20 -7 -20 -15z"/>
<path d="M4202 2488 c-7 -7 -12 -29 -12 -50 l0 -38 80 0 80 0 0 31 c0 56 -14
69 -78 69 -32 0 -63 -5 -70 -12z"/>
<path d="M4740 2481 c-5 -11 -10 -33 -10 -50 l0 -31 80 0 80 0 0 31 c0 57 -14
69 -80 69 -48 0 -61 -4 -70 -19z"/>
<path d="M3038 2344 c-30 -65 63 -113 125 -64 20 16 27 30 27 56 l0 34 -70 0
c-66 0 -71 -2 -82 -26z"/>
<path d="M5732 2358 c-17 -17 -15 -64 5 -83 12 -13 28 -16 62 -12 52 6 81 34
81 78 l0 29 -68 0 c-40 0 -73 -5 -80 -12z"/>
</g>
</svg>
